#!OML:ASF F:\VICON\USERDATA\Patient Classification 1\PLAYGROUND\JustinFriday\JustinFriday.ASF
:FULLY-SPECIFIED
:DEGREES
4171
root 13.2627 26.9124 40.7343 17.8721 -173.366 5.23542
lowerback 16.0119 -7.41899 6.64015
upperback 4.72258 -9.35872 -1.01329
thorax -5.01165 -4.87266 -2.79805
lowerneck 7.55319 -6.51387 -22.0926
upperneck -1.81741 -10.3516 16.4299
head 0.274441 -5.4393 8.70506
rclavicle -3.18055e-014 -1.74931e-014
rhumerus 128.745 -6.9987 -97.1862
rradius 116.353
rwrist 13.0894
rhand -27.0662 341.122
rfingers 7.12502
rthumb -0.484011 -48.8574
lclavicle -3.18055e-014 -1.74931e-014
lhumerus 117.894 34.6877 71.408
lradius 112.219
lwrist -41.2932
lhand -19.7283 4.13429
lfingers 7.12502
lthumb 6.60209 34.0114
rfemur -10.232 0.221682 29.7694
rtibia 28.7729
rfoot -17.7745 -10.9284
rtoes 56.3475
lfemur -12.956 5.05755 -11.4495
ltibia 33.9614
lfoot -31.5235 -0.303849
ltoes -7.29281
4172
root 13.2568 26.9095 40.7195 17.876 -173.291 5.11304
lowerback 16.0381 -7.45111 6.59884
upperback 4.72397 -9.40804 -1.04998
thorax -5.02959 -4.89695 -2.79903
lowerneck 7.62028 -6.4859 -22.1267
upperneck -1.88703 -10.3261 16.5509
head 0.24705 -5.43071 8.75713
rclavicle -4.21423e-014 2.22639e-014
rhumerus 128.94 -7.35957 -97.2726
rradius 116.211
rwrist 12.6502
rhand -27.6828 341.343
rfingers 7.12502
rthumb -1.07951 -48.6344
lclavicle -4.21423e-014 2.22639e-014
lhumerus 118.171 34.9562 71.5249
lradius 112.11
lwrist -41.257
lhand -19.8084 4.23907
lfingers 7.12502
lthumb 6.52482 34.1186
rfemur -10.158 0.0690008 29.646
rtibia 28.7565
rfoot -17.771 -10.9213
rtoes 56.3668
lfemur -12.9179 5.03994 -11.5622
ltibia 33.9856
lfoot -31.6714 -0.336597
ltoes -7.70523
4173
root 13.2541 26.9061 40.7042 17.883 -173.287 5.29568
lowerback 16.0861 -7.41091 6.71065
upperback 4.70662 -9.328 -0.985235
thorax -5.07042 -4.85865 -2.80328
lowerneck 7.67332 -6.49952 -22.008
upperneck -1.896 -10.3441 16.4682
head 0.228364 -5.44021 8.71268
rclavicle 4.69132e-014 6.36111e-015
rhumerus 129.053 -7.65923 -97.3679
rradius 116.256
rwrist 12.6777
rhand -27.3989 340.986
rfingers 7.12502
rthumb -0.805337 -48.9924
lclavicle 4.69132e-014 6.36111e-015
lhumerus 118.375 35.1461 71.637
lradius 112.012
lwrist -41.1162
lhand -19.8645 4.32242
lfingers 7.12502
lthumb 6.47063 34.2036
rfemur -10.1035 0.0599702 29.8258
rtibia 28.7211
rfoot -17.8167 -10.8602
rtoes 56.4293
lfemur -12.8812 5.08507 -11.3655
ltibia 34.0161
lfoot -31.7636 -0.285225
ltoes -8.0552
4174
root 13.2519 26.9012 40.6889 17.9172 -173.451 5.45176
lowerback 16.1664 -7.2786 6.68837
upperback 4.65333 -9.14193 -0.920437
thorax -5.13658 -4.76776 -2.7545
lowerneck 7.78198 -6.56679 -21.8103
upperneck -1.91921 -10.4384 16.2827
head 0.201233 -5.48729 8.62101
rclavicle 1.11319e-014 1.27222e-014
rhumerus 129.078 -8.02393 -97.3381
rradius 116.245
rwrist 12.3718
rhand -27.7146 340.976
rfingers 7.12502
rthumb -1.11023 -49.0007
lclavicle 1.11319e-014 1.27222e-014
lhumerus 118.553 35.322 71.7378
lradius 111.943
lwrist -40.9356
lhand -19.7025 4.51067
lfingers 7.12502
lthumb 6.62697 34.387
rfemur -10.0852 0.126609 29.9214
rtibia 28.6937
rfoot -17.7579 -10.7217
rtoes 56.4345
lfemur -12.8192 5.17116 -11.2587
ltibia 34.0259
lfoot -31.7804 -0.188504
ltoes -8.1216
4175
root 13.2475 26.8994 40.6743 17.943 -173.577 5.51702
lowerback 16.2068 -7.18607 6.65626
upperback 4.62239 -9.01756 -0.893133
thorax -5.16926 -4.70694 -2.73146
lowerneck 7.88703 -6.5794 -21.6843
upperneck -2.05382 -10.4572 16.2146
head 0.138152 -5.4966 8.58623
rclavicle 5.48646e-014 -2.22639e-014
rhumerus 129.159 -8.33538 -97.4232
rradius 116.261
rwrist 12.2609
rhand -27.7203 340.858
rfingers 7.12502
rthumb -1.11574 -49.1191
lclavicle 5.48646e-014 -2.22639e-014
lhumerus 118.804 35.5318 71.8884
lradius 111.918
lwrist -40.7956
lhand -19.386 4.64505
lfingers 7.12502
lthumb 6.93254 34.5115
rfemur -10.0804 0.145409 29.9272
rtibia 28.7033
rfoot -17.5816 -10.565
rtoes 56.4367
lfemur -12.7397 5.13754 -11.2499
ltibia 33.9923
lfoot -31.8155 -0.0288672
ltoes -8.10974
4176
root 13.2451 26.9003 40.6615 17.9786 -173.594 5.48625
lowerback 16.1917 -7.16182 6.60047
upperback 4.61766 -8.99498 -0.896158
thorax -5.15665 -4.69509 -2.71158
lowerneck 8.00538 -6.5658 -21.6988
upperneck -2.21145 -10.4541 16.3496
head 0.0812109 -5.49988 8.64337
rclavicle -2.22639e-014 -3.18055e-015
rhumerus 129.25 -8.44612 -97.5957
rradius 116.259
rwrist 12.1827
rhand -27.7135 341.009
rfingers 7.12502
rthumb -1.10919 -48.968
lclavicle -2.22639e-014 -3.18055e-015
lhumerus 119.062 35.673 72.0071
lradius 111.851
lwrist -40.77
lhand -19.2135 4.59951
lfingers 7.12502
lthumb 7.09908 34.4605
rfemur -10.0933 0.179175 29.8853
rtibia 28.7298
rfoot -17.5451 -10.5205
rtoes 56.5034
lfemur -12.7029 5.08784 -11.2989
ltibia 33.9406
lfoot -31.8473 0.13866
ltoes -8.21507
4177
root 13.2427 26.9002 40.6479 18.0907 -173.599 5.27456
lowerback 16.0634 -7.15214 6.3993
upperback 4.61437 -9.02342 -0.94882
thorax -5.07564 -4.70537 -2.667
lowerneck 8.04314 -6.60189 -21.6283
upperneck -2.21036 -10.5043 16.3303
head 0.0802716 -5.52662 8.62529
rclavicle -5.64548e-014 1.74931e-014
rhumerus 129.327 -8.46006 -97.7611
rradius 116.261
rwrist 12.1688
rhand -27.5511 341.134
rfingers 7.12502
rthumb -0.952369 -48.8438
lclavicle -5.64548e-014 1.74931e-014
lhumerus 119.241 35.7607 72.0273
lradius 111.796
lwrist -40.7327
lhand -19.1478 4.58127
lfingers 7.12502
lthumb 7.16244 34.4401
rfemur -10.1549 0.170303 29.6572
rtibia 28.7563
rfoot -17.5023 -10.472
rtoes 56.6182
lfemur -12.739 5.06587 -11.5438
ltibia 33.8943
lfoot -31.8717 0.262424
ltoes -8.45516
4178
root 13.2386 26.8983 40.6371 18.1151 -173.602 5.3235
lowerback 16.0277 -7.12786 6.40701
upperback 4.6269 -8.9934 -0.937261
thorax -5.0393 -4.69035 -2.67162
lowerneck 7.97667 -6.68598 -21.403
upperneck -2.08183 -10.5927 16.1069
head 0.120321 -5.56655 8.5049
rclavicle -1.33583e-013 -6.36111e-014
rhumerus 129.402 -8.53325 -97.8847
rradius 116.25
rwrist 12.1684
rhand -27.3693 341.151
rfingers 7.12502
rthumb -0.776739 -48.8272
lclavicle -1.33583e-013 -6.36111e-014
lhumerus 119.375 35.7468 72.1137
lradius 111.864
lwrist -40.7968
lhand -19.005 4.60122
lfingers 7.12502
lthumb 7.30034 34.4553
rfemur -10.1554 0.128247 29.6924
rtibia 28.786
rfoot -17.3422 -10.3424
rtoes 56.6981
lfemur -12.6866 5.00492 -11.5117
ltibia 33.8591
lfoot -31.9094 0.37923
ltoes -8.42918
4179
root 13.2361 26.8982 40.6287 18.1391 -173.649 5.51847
lowerback 16.0361 -7.06749 6.49177
upperback 4.61488 -8.89491 -0.879166
thorax -5.04898 -4.6425 -2.67809
lowerneck 7.92237 -6.77643 -21.19
upperneck -1.95657 -10.6929 15.9289
head 0.162698 -5.61405 8.40191
rclavicle -6.36111e-014 3.18055e-014
rhumerus 129.473 -8.68659 -97.9397
rradius 116.202
rwrist 12.1839
rhand -27.3222 341.179
rfingers 7.12502
rthumb -0.731285 -48.7995
lclavicle -6.36111e-014 3.18055e-014
lhumerus 119.471 35.7508 72.2144
lradius 111.934
lwrist -40.8598
lhand -18.9699 4.6633
lfingers 7.12502
lthumb 7.33423 34.5162
rfemur -10.1859 0.150278 29.8774
rtibia 28.8129
rfoot -17.1873 -10.2574
rtoes 56.6773
lfemur -12.6443 5.01066 -11.33
ltibia 33.8279
lfoot -31.8911 0.37515
ltoes -7.97667
4180
root 13.2358 26.9004 40.6181 18.2569 -173.857 5.56187
lowerback 15.9525 -6.94204 6.3558
upperback 4.5748 -8.74924 -0.86196
thorax -5.01156 -4.56828 -2.62835
lowerneck 7.90025 -6.85725 -20.952
upperneck -1.88284 -10.7809 15.7365
head 0.180022 -5.65524 8.29411
rclavicle -2.46493e-014 1.90833e-014
rhumerus 129.555 -8.82829 -97.9857
rradius 116.175
rwrist 12.2025
rhand -27.2613 341.16
rfingers 7.12502
rthumb -0.672479 -48.8184
lclavicle -2.46493e-014 1.90833e-014
lhumerus 119.571 35.9166 72.2537
lradius 111.892
lwrist -40.771
lhand -19.0075 4.75764
lfingers 7.12502
lthumb 7.29793 34.6118
rfemur -10.2752 0.270897 29.8472
rtibia 28.8336
rfoot -17.1553 -10.151
rtoes 56.6702
lfemur -12.6592 5.13831 -11.3631
ltibia 33.7914
lfoot -31.885 0.338064
ltoes -7.53183
